# xmcd
#
# Track frame offsets: 
#        150
#        16260
#        37450
#        56634
#        68103
#        83536
#        100529
#        121747
#        139241
#        155359
#        169617
#        185990
#
# Disc length: 2677 seconds
#
# Revision: 0
# Processed by: cddbd v1.5.1PL2 Copyright (c) Steve Scherf et al.
# Submitted via: ExactAudioCopy v0.95b4
#
DISCID=9c0a730c
DTITLE=The Holland K. Smith Band - Enough Is Enough
DYEAR=2002
DGENRE=Blues
TTITLE0=Mean Ol' Lies
TTITLE1=Trouble
TTITLE2=Good Mind To Wander
TTITLE3=Mess Around
TTITLE4=No More Doggin'
TTITLE5=That's What You Do To Me
TTITLE6=Come Back Baby
TTITLE7=As Long As I Live
TTITLE8=Enough Is Enough
TTITLE9=Walkin' With My Baby
TTITLE10=Trainyard Blues
TTITLE11=Cookin' With Gas
EXTD=
EXTT0=
EXTT1=
EXTT2=
EXTT3=
EXTT4=
EXTT5=
EXTT6=
EXTT7=
EXTT8=
EXTT9=
EXTT10=
EXTT11=
PLAYORDER=
